<svg xmlns="http://www.w3.org/2000/svg" width="1200" height="800" viewBox="0 0 1200 800">
  <defs>
    <linearGradient id="bg" x1="0" y1="0" x2="0" y2="1">
      <stop offset="0" stop-color="#3b4a2e"/><stop offset="1" stop-color="#161d12"/>
    </linearGradient>
    <linearGradient id="gold" x1="0" y1="0" x2="1" y2="1">
      <stop offset="0" stop-color="#e8c96e"/><stop offset="1" stop-color="#a8812f"/>
    </linearGradient>
  </defs>
  <rect width="1200" height="800" fill="url(#bg)"/>
  <ellipse cx="600" cy="660" rx="520" ry="40" fill="#0d1410"/>
  <rect x="430" y="420" width="340" height="240" fill="#1e2a21" stroke="url(#gold)" stroke-width="3"/>
  <polygon points="405,420 600,330 795,420" fill="#182218" stroke="url(#gold)" stroke-width="3"/>
  <rect x="470" y="470" width="50" height="60" fill="#0e1512" stroke="url(#gold)" stroke-width="2"/>
  <rect x="545" y="470" width="50" height="60" fill="#0e1512" stroke="url(#gold)" stroke-width="2"/>
  <rect x="620" y="470" width="50" height="60" fill="#0e1512" stroke="url(#gold)" stroke-width="2"/>
  <rect x="695" y="470" width="50" height="60" fill="#0e1512" stroke="url(#gold)" stroke-width="2"/>
  <path d="M850 640 C870 520 880 460 895 400 M895 400 C878 372 852 360 824 356 M895 400 C878 370 856 356 836 350 M895 400 C906 366 930 352 958 350" stroke="#0d1410" stroke-width="12" fill="none" stroke-linecap="round"/>
</svg>